<svg xmlns="http://www.w3.org/2000/svg"><defs>
<symbol id="grid" viewBox="0 0 24 24"><rect x="3" y="3" width="7" height="7" rx="1"/><rect x="14" y="3" width="7" height="7" rx="1"/><rect x="3" y="14" width="7" height="7" rx="1"/><rect x="14" y="14" width="7" height="7" rx="1"/></symbol>
<symbol id="folder" viewBox="0 0 24 24"><path d="M3 7V5h6l2 2h10v13H3z"/></symbol>
<symbol id="save" viewBox="0 0 24 24"><path d="M4 3h13l4 4v14H3V3zM7 3v6h9V3M7 21v-8h10v8"/></symbol>
<symbol id="export" viewBox="0 0 24 24"><path d="M12 3v12m-4-4 4 4 4-4M4 15v6h16v-6"/></symbol>
<symbol id="help" viewBox="0 0 24 24"><circle cx="12" cy="12" r="9"/><path d="M9 9a3 3 0 0 1 6 0c0 2-3 2-3 4m0 3v.1"/></symbol>
<symbol id="search" viewBox="0 0 24 24"><circle cx="10.5" cy="10.5" r="6.5"/><path d="m16 16 5 5"/></symbol>
<symbol id="play" viewBox="0 0 24 24"><path d="m8 4 12 8-12 8z"/></symbol>
<symbol id="pause" viewBox="0 0 24 24"><path d="M8 5v14M16 5v14" stroke-width="3.5"/></symbol>
<symbol id="rewind" viewBox="0 0 24 24"><path d="M5 4v16m14-16L8 12l11 8z"/></symbol>
<symbol id="loop" viewBox="0 0 24 24"><path d="M20 9a8 8 0 0 0-14-3L3 9m0-6v6h6M4 15a8 8 0 0 0 14 3l3-3m0 6v-6h-6"/></symbol>
<symbol id="expand" viewBox="0 0 24 24"><path d="M9 3H3v6m12-6h6v6M3 15v6h6m12-6v6h-6"/></symbol>
<symbol id="camera" viewBox="0 0 24 24"><path d="M3 7h4l2-3h6l2 3h4v14H3z"/><circle cx="12" cy="13" r="4"/></symbol>
<symbol id="plus" viewBox="0 0 24 24"><path d="M12 4v16M4 12h16"/></symbol>
<symbol id="code" viewBox="0 0 24 24"><path d="m7 6-6 6 6 6m10-12 6 6-6 6M14 3l-4 18"/></symbol>
<symbol id="focus" viewBox="0 0 24 24"><path d="M8 3H3v5m13-5h5v5M3 16v5h5m13-5v5h-5"/><circle cx="12" cy="12" r="3"/></symbol>
<symbol id="eye" viewBox="0 0 24 24"><path d="M2 12s4-7 10-7 10 7 10 7-4 7-10 7S2 12 2 12z"/><circle cx="12" cy="12" r="3"/></symbol>
</defs></svg>
